<?xml version="1.0" encoding="UTF-8" standalone="no" ?>
<!DOCTYPE svg PUBLIC "-//W3C//DTD SVG 1.1//EN" "http://www.w3.org/Graphics/SVG/1.1/DTD/svg11.dtd">
<svg xmlns="http://www.w3.org/2000/svg" xmlns:xlink="http://www.w3.org/1999/xlink" version="1.1" width="1080" height="1080" viewBox="0 0 1080 1080" xml:space="preserve">
<desc>Created with Fabric.js 5.2.4</desc>
<defs>
</defs>
<g transform="matrix(1 0 0 1 540 540)" id="228c2792-25aa-4d1d-aaa6-81287b9c9aa3"  >
<rect style="stroke: none; stroke-width: 1; stroke-dasharray: none; stroke-linecap: butt; stroke-dashoffset: 0; stroke-linejoin: miter; stroke-miterlimit: 4; fill: rgb(255,255,255); fill-rule: nonzero; opacity: 1; visibility: hidden;" vector-effect="non-scaling-stroke"  x="-540" y="-540" rx="0" ry="0" width="1080" height="1080" />
</g>
<g transform="matrix(1 0 0 1 540 540)" id="6d25ea8d-2c8f-4ff9-a20e-087bbe7da6be"  >
</g>
<g transform="matrix(1 0 0 1 540 540)"  >
<g style="" vector-effect="non-scaling-stroke"   >
		<g transform="matrix(1 0 0 1 0 0)"  >
<path style="stroke: none; stroke-width: 1; stroke-dasharray: none; stroke-linecap: butt; stroke-dashoffset: 0; stroke-linejoin: miter; stroke-miterlimit: 4; fill: rgb(255,255,255); fill-rule: nonzero; opacity: 1;" vector-effect="non-scaling-stroke"  transform=" translate(-510.44, -511.86)" d="M 952.52275 496.376064 C 946.4966969999999 487.324567 801.286661 274.610998 510.426317 274.610998 C 219.597583 274.610998 74.385289 487.324567 68.33214299999997 496.376064 C 62.08906860633721 505.7531118625594 62.08906860633721 517.9624061374406 68.33214299999997 527.3394539999999 C 74.38528899999997 536.3886929999999 219.59758399999998 749.1045199999999 510.426317 749.1045199999999 C 801.284402 749.1045199999999 946.496697 536.3886929999999 952.52275 527.3394539999999 C 958.7950707734815 517.9712721724735 958.7950707734815 505.74424582752636 952.52275 496.37606399999993 z M 510.426317 693.282815 C 293.935458 693.282815 164.64964499999996 558.223821 126.63516299999998 511.80131400000005 C 164.51191899999998 465.28849500000007 293.118137 330.43496000000005 510.426317 330.43496100000004 C 726.948785 330.43496100000004 856.202989 465.493955 894.2197289999999 511.91194600000006 C 856.3452309999999 558.4247650000001 727.7390129999999 693.282815 510.4263169999999 693.282815 z" stroke-linecap="round" />
</g>
		<g transform="matrix(1 0 0 1 -0.01 0)"  >
<path style="stroke: none; stroke-width: 1; stroke-dasharray: none; stroke-linecap: butt; stroke-dashoffset: 0; stroke-linejoin: miter; stroke-miterlimit: 4; fill: rgb(255,255,255); fill-rule: nonzero; opacity: 1;" vector-effect="non-scaling-stroke"  transform=" translate(-510.43, -511.86)" d="M 510.426317 386.256665 C 441.134612 386.256665 384.766521 442.597662 384.766521 511.857759 C 384.766521 581.120113 441.134612 637.458853 510.42631700000004 637.458853 C 579.718022 637.458853 636.0861130000001 581.120113 636.0861140000001 511.857759 C 636.0861140000001 442.597663 579.7202810000001 386.256665 510.42631700000004 386.256665 z M 510.426317 581.63489 C 471.948988 581.63489 440.617577 550.3283150000001 440.617577 511.85775900000004 C 440.617577 473.38268700000003 471.948988 442.07837000000006 510.426317 442.07837000000006 C 548.932998 442.07837000000006 580.237315 473.3826870000001 580.237315 511.85775900000004 C 580.237315 550.3283150000001 548.932998 581.63489 510.426317 581.63489 z" stroke-linecap="round" />
</g>
</g>
</g>
</svg>